<svg width="20" height="21" viewBox="0 0 20 21" fill="none" xmlns="http://www.w3.org/2000/svg">
<path fill-rule="evenodd" clip-rule="evenodd" d="M0 3.5C0 1.84315 1.34315 0.5 3 0.5H17C18.6569 0.5 20 1.84315 20 3.5V17.5C20 19.1569 18.6569 20.5 17 20.5H3C1.34315 20.5 0 19.1569 0 17.5V3.5ZM6.14807 12.9022C6.33853 12.6845 6.67339 12.6734 6.87791 12.8779L8.56874 14.5687C8.79184 14.7918 9.16329 14.7551 9.33831 14.4925L11.6286 11.0572C11.8139 10.7791 12.2147 10.7577 12.4287 11.0144L16.3166 15.6799C16.588 16.0056 16.3564 16.5 15.9325 16.5H4.10188C3.6723 16.5 3.44272 15.994 3.7256 15.6707L6.14807 12.9022ZM7 8.5C8.10457 8.5 9 7.60457 9 6.5C9 5.39543 8.10457 4.5 7 4.5C5.89543 4.5 5 5.39543 5 6.5C5 7.60457 5.89543 8.5 7 8.5Z" fill="white"/>
</svg>
