<svg width="77" height="77" viewBox="0 0 77 77" fill="none" xmlns="http://www.w3.org/2000/svg">
<rect width="77" height="77" fill="#CFCFCF"/>
<path d="M26.3893 38.2392C26.5023 34.6074 26.6065 30.8887 26.7282 27.1787C26.7368 26.8485 26.6673 26.6139 26.4241 26.3793C25.6073 25.5713 24.808 24.7372 24.0086 23.9205C23.7567 23.6598 23.7306 23.3992 23.9304 23.1733C24.139 22.9474 24.3822 22.93 24.6081 23.1646C25.0078 23.5642 25.3988 23.9639 25.7985 24.3723C28.1183 26.7182 30.4382 29.0728 32.7493 31.4187C35.9989 34.7204 39.2484 38.022 42.4892 41.3324C44.8178 43.713 47.1376 46.1024 49.4575 48.4831C51.2647 50.3424 53.0806 52.1931 54.8878 54.0437C55.1398 54.3044 55.1832 54.5303 55.0268 54.7562C54.827 55.0429 54.5576 55.069 54.297 54.817C53.7931 54.3131 53.2978 53.8092 52.8026 53.3052C52.4203 52.9142 52.0293 52.5232 51.647 52.1236C51.534 52.0106 51.4211 51.9672 51.2647 51.9759C47.0768 52.1931 42.8889 52.2973 38.6923 52.2539C35.5036 52.2191 32.3236 52.1323 29.1436 52.0454C27.9185 52.0106 27.0323 51.3416 26.7542 50.2642C26.676 49.9775 26.6586 49.6647 26.65 49.3606C26.5718 45.6853 26.4849 42.0014 26.3893 38.2392ZM41.8376 42.1317C40.6907 43.5393 39.5612 44.9294 38.4143 46.337C38.2058 46.1024 38.0233 45.8939 37.8495 45.694C37.2153 44.9555 36.5897 44.217 35.9554 43.4871C35.6513 43.1309 35.2169 43.1135 34.9475 43.4611C34.4089 44.1388 33.8788 44.8339 33.3488 45.5203C33.1664 45.7549 33.1664 46.0155 33.288 46.2762C33.427 46.5716 33.679 46.6237 33.9744 46.6324C37.9972 46.7367 42.02 46.7193 46.0515 46.6063C46.0863 46.6063 46.1297 46.589 46.1992 46.5803C44.7396 45.0771 43.2886 43.6088 41.8376 42.1317Z" fill="#93989A"/>
<path d="M31.6287 25.0589C31.7677 25.0589 31.8981 25.0589 32.0371 25.0589C35.3822 25.0328 38.7273 24.972 42.0724 24.9894C44.957 25.0068 47.8503 25.1024 50.7349 25.1806C52.0121 25.2153 52.9765 26.2145 53.0113 27.5438C53.0895 30.3589 53.1677 33.174 53.1937 35.9891C53.2198 38.8564 53.185 41.7236 53.1677 44.5908C53.1677 45.312 53.1416 46.0418 53.1242 46.763C53.1242 46.8412 53.1155 46.9107 53.0808 47.0062C46.2255 39.4037 39.0748 32.114 31.6113 25.1284C31.62 25.1024 31.6287 25.085 31.6287 25.0589Z" fill="#93989A"/>
</svg>
