<svg width="106" height="32" viewBox="0 0 106 32" fill="none" xmlns="http://www.w3.org/2000/svg">
<g clip-path="url(#clip0_2601_3571)">
<path d="M9.15 9.38L0 0V31.11H2.47V22.12L11.62 31.51V0.36H9.15V9.38ZM9.15 25.41L2.47 18.55V6.08L9.15 12.94V25.41Z" fill="black"/>
<path d="M14.1 31.1404H16.55V24.4804L24.99 15.8504V12.3104L16.55 20.9404V18.5904L24.99 10.0104V6.42035L16.55 15.0504V2.85035H24.99V0.360352H14.1V31.1404Z" fill="black"/>
<path d="M39.39 0.360352H27.46V2.86035H39.39V0.360352Z" fill="black"/>
<path d="M27.46 7.2202L32.69 12.1902V31.1402H35.15V11.1002L30.79 6.9502H39.4V4.4502H27.46V7.2202Z" fill="black"/>
<path d="M53.1699 28.1999C52.7899 27.7199 52.43 27.2699 52.09 26.8499L50.74 25.1599C51.25 25.0599 51.69 24.9099 52.07 24.6999C52.8 24.2899 53.33 23.7499 53.63 23.0799C53.94 22.4199 54.0999 21.6899 54.0999 20.8999C54.0999 19.9599 53.9099 19.1799 53.5299 18.5999C53.1499 17.9999 52.58 17.5699 51.83 17.3099C51.11 17.0499 50.1999 16.9199 49.1199 16.9199H44.2V31.2199H46.41V25.6199H48.5L50.24 27.8599C50.65 28.3699 51.07 28.8999 51.49 29.4399L52.8899 31.2199H55.58L54.29 29.5999C53.93 29.1399 53.56 28.6699 53.18 28.1999H53.1699ZM48.49 23.6699H46.4199V18.8699H49.06C49.37 18.8699 49.6999 18.8899 50.0299 18.9399C50.3499 18.9799 50.6499 19.0699 50.9199 19.2099C51.1799 19.3399 51.38 19.5499 51.54 19.8499C51.7 20.1399 51.79 20.5499 51.79 21.0799C51.79 21.7199 51.6699 22.2399 51.4399 22.6099C51.2099 22.9799 50.87 23.2399 50.4 23.4099C49.91 23.5899 49.26 23.6799 48.49 23.6799V23.6699Z" fill="#00FFC4"/>
<path d="M71.82 10.2598C71.98 10.7298 72.18 11.1698 72.42 11.5798L72.58 11.8598L74.25 10.1898L74.18 10.0298C74.11 9.8598 74.04 9.6798 73.99 9.4998C73.79 8.8498 73.69 8.1598 73.69 7.4398C73.69 6.7198 73.79 6.0398 74 5.3998C74.2 4.7598 74.51 4.1798 74.91 3.6798C75.31 3.1798 75.82 2.7898 76.42 2.4998C77.03 2.2098 77.75 2.0698 78.58 2.0698C79.41 2.0698 80.09 2.2098 80.68 2.4798C80.91 2.5798 81.12 2.6998 81.31 2.8298L81.48 2.9398L83.02 1.3998L82.77 1.2298C82.42 0.999805 82.04 0.789805 81.64 0.619805C80.75 0.239805 79.72 0.0498047 78.57 0.0498047C77.05 0.0498047 75.74 0.379805 74.67 1.0298C73.6 1.6798 72.77 2.5798 72.21 3.6998C71.65 4.8098 71.37 6.0698 71.37 7.4398C71.37 8.4198 71.52 9.3598 71.82 10.2398V10.2598Z" fill="#00FFC4"/>
<path d="M59.4099 8.38934H66.3399V14.6193H68.5899V0.319336H66.3399V6.37934H59.4099V0.319336H57.1599V14.6193H59.4099V8.38934Z" fill="#00FFC4"/>
<path d="M46.24 7.30957C46.87 7.63957 47.64 7.94957 48.53 8.22957C49.27 8.45957 49.9 8.68957 50.41 8.91957C50.9 9.13957 51.28 9.38957 51.53 9.68957C51.77 9.95957 51.88 10.2996 51.88 10.7296C51.88 11.2296 51.76 11.6396 51.53 11.9396C51.29 12.2496 50.97 12.4596 50.55 12.6096C49.73 12.8896 48.63 12.8796 47.63 12.6896L47.49 12.6596C46.93 12.5496 46.24 12.4096 45.82 12.1796L45.65 12.0796L44.24 13.6196L44.53 13.7696C44.84 13.9396 45.26 14.0996 45.76 14.2696C46.26 14.4296 46.82 14.5596 47.4 14.6596C48 14.7696 48.6 14.8296 49.19 14.8296C50.33 14.8296 51.29 14.6496 52.02 14.2796C52.77 13.9096 53.32 13.3996 53.68 12.7696C54.04 12.1396 54.22 11.4196 54.22 10.6196C54.22 9.89957 54.07 9.26957 53.78 8.76957C53.49 8.25957 53 7.80957 52.33 7.43957C51.69 7.06957 50.79 6.70957 49.67 6.34957C48.91 6.10957 48.29 5.86957 47.82 5.65957C47.37 5.44957 47.05 5.20957 46.84 4.94957C46.65 4.69957 46.55 4.38957 46.55 4.00957C46.55 3.55957 46.66 3.20957 46.89 2.93957C47.13 2.64957 47.45 2.43957 47.85 2.29957C48.55 2.04957 49.36 1.99957 50.36 2.20957C50.8 2.28957 51.61 2.44957 51.97 2.68957L52.15 2.80957L53.53 1.29957L53.27 1.13957C53.05 0.99957 52.77 0.86957 52.46 0.73957C52.15 0.61957 51.8 0.49957 51.43 0.39957C51.05 0.28957 50.65 0.20957 50.24 0.14957C49.83 0.0895703 49.41 0.0595703 48.98 0.0595703C47.95 0.0595703 47.08 0.22957 46.38 0.57957C45.67 0.91957 45.12 1.39957 44.75 2.00957C44.39 2.60957 44.21 3.29957 44.21 4.05957C44.21 4.81957 44.39 5.49957 44.74 6.01957C45.09 6.51957 45.6 6.94957 46.25 7.28957L46.24 7.30957Z" fill="#00FFC4"/>
<path d="M103.49 0.31957L103.44 0.50957C103.18 1.46957 102.91 2.49957 102.62 3.58957C102.33 4.67957 102.06 5.70957 101.8 6.66957L100.46 11.6496L99.15 6.69957C98.89 5.69957 98.61 4.66957 98.33 3.59957C98.05 2.52957 97.78 1.49957 97.52 0.50957L97.47 0.31957H95.05L94.47 2.53957C94.29 3.23957 94.1 3.94957 93.92 4.65957C93.74 5.35957 93.56 6.02957 93.4 6.66957L92.11 11.6296L89.96 3.61957C89.67 2.52957 89.39 1.48957 89.12 0.49957L89.07 0.31957H86.61L87.45 3.22957C87.71 4.14957 87.96 4.98957 88.18 5.75957L90.05 12.2396C90.28 13.0196 90.49 13.7496 90.68 14.4396L90.73 14.6196H93.28L93.37 14.2696C93.61 13.3896 93.86 12.4496 94.13 11.4496C94.41 10.3896 94.68 9.39957 94.92 8.46957L96.21 3.65957L97.52 8.46957C97.77 9.38957 98.04 10.3796 98.32 11.4296C98.61 12.4796 98.88 13.4796 99.14 14.4296L99.19 14.6096H101.81L101.86 14.4296C102.06 13.7596 102.27 13.0396 102.49 12.2696L104.38 5.70957C104.61 4.94957 104.85 4.10957 105.11 3.20957L105.96 0.30957H103.49V0.31957Z" fill="#00FFC4"/>
<path d="M58.33 25.9399C58.16 25.3399 58.08 24.6999 58.08 24.0399C58.08 23.3299 58.18 22.6399 58.39 21.9999C58.59 21.3499 58.9 20.7799 59.3 20.2799C59.7 19.7799 60.21 19.3899 60.81 19.0999C61.42 18.8099 62.14 18.6699 62.97 18.6699C63.8 18.6699 64.48 18.8099 65.12 19.1099L65.28 19.1799L66.83 17.6299L66.53 17.4699C66.37 17.3899 66.2 17.3099 66.03 17.2399C65.15 16.8599 64.11 16.6699 62.96 16.6699C61.44 16.6699 60.13 16.9999 59.06 17.6599C57.99 18.3099 57.16 19.2099 56.6 20.3299C56.04 21.4399 55.76 22.6999 55.76 24.0699C55.76 25.0499 55.91 25.9899 56.21 26.8699C56.29 27.0899 56.37 27.3099 56.47 27.5299L56.62 27.8599L58.38 26.0999L58.34 25.9599L58.33 25.9399Z" fill="#00FFC4"/>
<path d="M104.26 28.7202L103.41 21.7802C103.3 20.9302 103.2 20.1402 103.11 19.4102C103.03 18.6802 102.94 17.9202 102.84 17.1302L102.81 16.9102H100.66L100.6 17.0702C100.21 18.0602 99.83 19.0102 99.46 19.9102C99.09 20.8102 98.73 21.7202 98.36 22.6402L96.36 27.5902L94.34 22.6302C93.97 21.7302 93.6 20.8202 93.23 19.9102L92.01 16.9102H89.86L89.83 17.1302C89.73 17.9302 89.63 18.7002 89.54 19.4202C89.45 20.1502 89.35 20.9402 89.25 21.7802L88.68 26.3302C88.58 27.1902 88.48 27.9802 88.38 28.7102C88.29 29.4402 88.2 30.1802 88.11 30.9302L88.08 31.2102H90.26L90.29 30.9902C90.44 29.7602 90.58 28.6002 90.71 27.5002L91.5 21.0102L93.04 24.8202C93.32 25.5102 93.61 26.2202 93.91 26.9602C94.21 27.6902 94.51 28.4102 94.79 29.1202C95.07 29.8302 95.33 30.4702 95.56 31.0502L95.62 31.2102H97.15L101.17 21.0202L102.41 31.2102H104.59L104.56 30.9302C104.47 30.1702 104.38 29.4302 104.29 28.7102L104.26 28.7202Z" fill="#00FFC4"/>
<path d="M84.45 2.92969L84.28 2.67969L82.66 4.29969L82.74 4.45969C82.88 4.72969 83 5.02969 83.1 5.32969C83.31 5.97969 83.42 6.68969 83.42 7.44969C83.42 8.14969 83.32 8.83969 83.13 9.48969C82.94 10.1297 82.64 10.7097 82.24 11.2097C81.85 11.7097 81.35 12.1097 80.75 12.3997C80.15 12.6897 79.42 12.8297 78.57 12.8297C77.72 12.8297 77 12.6797 76.39 12.3997C76.05 12.2397 75.73 12.0397 75.45 11.8097L75.28 11.6697L73.74 13.2097L73.96 13.3797C74.4 13.7197 74.9 14.0197 75.45 14.2597C76.35 14.6497 77.42 14.8397 78.62 14.8397C80.1 14.8397 81.39 14.5197 82.45 13.8697C83.51 13.2197 84.33 12.3297 84.9 11.2197C85.46 10.1097 85.74 8.83969 85.74 7.44969C85.74 6.43969 85.59 5.47969 85.28 4.58969C85.07 3.98969 84.79 3.41969 84.45 2.91969V2.92969Z" fill="#00FFC4"/>
<path d="M68.39 18.9402L68.21 18.7402L66.64 20.3102L66.77 20.4802C67.08 20.9002 67.32 21.3902 67.48 21.9202C67.69 22.5702 67.8 23.2802 67.8 24.0402C67.8 24.7402 67.7 25.4302 67.51 26.0802C67.32 26.7202 67.02 27.2902 66.62 27.8002C66.23 28.3002 65.73 28.7002 65.13 28.9902C64.53 29.2802 63.8 29.4202 62.95 29.4202C62.1 29.4202 61.38 29.2702 60.77 28.9902C60.22 28.7302 59.74 28.3802 59.36 27.9502L59.18 27.7502L57.61 29.3202L57.79 29.5002C58.35 30.0602 59.03 30.5102 59.82 30.8502C60.72 31.2402 61.79 31.4302 62.99 31.4302C64.47 31.4302 65.76 31.1102 66.82 30.4702C67.88 29.8202 68.7 28.9302 69.27 27.8202C69.83 26.7102 70.11 25.4402 70.11 24.0502C70.11 23.0402 69.96 22.0802 69.65 21.1902C69.36 20.3502 68.93 19.5902 68.38 18.9502L68.39 18.9402Z" fill="#00FFC4"/>
<path d="M83.91 18.8299C83.3 18.1499 82.54 17.6199 81.65 17.2399C80.77 16.8599 79.73 16.6699 78.58 16.6699C77.06 16.6699 75.75 16.9999 74.68 17.6599C73.61 18.3099 72.79 19.2099 72.22 20.3299C71.66 21.4399 71.38 22.6999 71.38 24.0699C71.38 25.0499 71.53 25.9899 71.83 26.8699C72.13 27.7499 72.58 28.5499 73.19 29.2399C73.8 29.9199 74.57 30.4699 75.47 30.8599C76.37 31.2499 77.44 31.4399 78.64 31.4399C80.12 31.4399 81.41 31.1199 82.47 30.4799C83.53 29.8299 84.35 28.9399 84.92 27.8299C85.48 26.7199 85.76 25.4499 85.76 24.0599C85.76 23.0499 85.61 22.0899 85.3 21.1999C84.99 20.3099 84.53 19.5099 83.92 18.8399L83.91 18.8299ZM83.13 26.0799C82.94 26.7199 82.64 27.2899 82.24 27.7999C81.85 28.2999 81.35 28.6899 80.75 28.9899C80.15 29.2799 79.42 29.4199 78.57 29.4199C77.72 29.4199 77 29.2699 76.39 28.9899C75.78 28.7099 75.27 28.3099 74.87 27.8199C74.47 27.3199 74.17 26.7399 73.97 26.0999C73.77 25.4499 73.67 24.7599 73.67 24.0399C73.67 23.3199 73.77 22.6399 73.98 21.9999C74.18 21.3599 74.49 20.7799 74.89 20.2799C75.29 19.7799 75.8 19.3899 76.4 19.0999C77.01 18.8099 77.73 18.6699 78.56 18.6699C79.39 18.6699 80.07 18.8099 80.66 19.0799C81.25 19.3499 81.76 19.7299 82.16 20.2099C82.57 20.6899 82.88 21.2599 83.08 21.9199C83.29 22.5699 83.4 23.2799 83.4 24.0399C83.4 24.7399 83.3 25.4299 83.11 26.0799H83.13Z" fill="#00FFC4"/>
</g>
<defs>
<clipPath id="clip0_2601_3571">
<rect width="105.96" height="31.5" fill="white"/>
</clipPath>
</defs>
</svg>
