<svg width="20" height="22" viewBox="0 0 20 22" fill="none" xmlns="http://www.w3.org/2000/svg">
<path d="M0 12.0016H6V10.0016H0V0.847571C1.48755e-05 0.760685 0.0226703 0.675303 0.0657334 0.599841C0.108797 0.524378 0.170781 0.461439 0.245577 0.417228C0.320372 0.373016 0.405398 0.349059 0.492273 0.347716C0.579148 0.346373 0.664873 0.367692 0.741 0.409571L19.203 10.5636C19.2814 10.6067 19.3468 10.6701 19.3923 10.7472C19.4378 10.8242 19.4618 10.9121 19.4618 11.0016C19.4618 11.0911 19.4378 11.1789 19.3923 11.256C19.3468 11.333 19.2814 11.3964 19.203 11.4396L0.741 21.5936C0.664873 21.6354 0.579148 21.6568 0.492273 21.6554C0.405398 21.6541 0.320372 21.6301 0.245577 21.5859C0.170781 21.5417 0.108797 21.4788 0.0657334 21.4033C0.0226703 21.3278 1.48755e-05 21.2425 0 21.1556V12.0016Z" fill="white"/>
</svg>
