<svg width="19" height="18" viewBox="0 0 19 18" fill="none" xmlns="http://www.w3.org/2000/svg">
<path d="M19 0V14C18.9998 14.8805 18.7091 15.7363 18.1729 16.4348C17.6368 17.1332 16.8852 17.6352 16.0346 17.863C15.1841 18.0907 14.2822 18.0315 13.4688 17.6944C12.6553 17.3573 11.9758 16.7613 11.5357 15.9987C11.0955 15.2361 10.9193 14.3496 11.0343 13.4767C11.1493 12.6037 11.5491 11.7931 12.1717 11.1705C12.7944 10.5479 13.605 10.1482 14.478 10.0333C15.351 9.9184 16.2375 10.0948 17 10.535V3H8.00001V14C7.99981 14.8805 7.70909 15.7363 7.17294 16.4348C6.63679 17.1332 5.88517 17.6352 5.03463 17.863C4.1841 18.0907 3.28218 18.0315 2.46875 17.6944C1.65533 17.3573 0.975843 16.7613 0.535679 15.9987C0.0955158 15.2361 -0.0807314 14.3496 0.0342702 13.4767C0.149272 12.6037 0.549096 11.7931 1.17174 11.1705C1.79438 10.5479 2.60504 10.1482 3.47801 10.0333C4.35098 9.9184 5.23747 10.0948 6.00001 10.535V0H19Z" fill="#0D0D0D"/>
</svg>
