<svg width="16" height="16" viewBox="0 0 16 16" fill="none" xmlns="http://www.w3.org/2000/svg">
<path fill-rule="evenodd" clip-rule="evenodd" d="M15.6465 8.35355C15.8417 8.15829 15.8417 7.84171 15.6465 7.64645L8.70712 0.707104C8.31659 0.316581 7.68343 0.316579 7.29291 0.707101L7.20711 0.792893C6.81659 1.18342 6.81659 1.81658 7.20711 2.20711L12 7H1C0.447715 7 0 7.44772 0 8C0 8.55229 0.447716 9 1 9H12L7.20711 13.7929C6.81659 14.1834 6.81659 14.8166 7.20711 15.2071L7.29291 15.2929C7.68343 15.6834 8.31659 15.6834 8.70712 15.2929L15.6465 8.35355Z" fill="black"/>
</svg>
