<svg width="107" height="36" viewBox="0 0 107 36" fill="none" xmlns="http://www.w3.org/2000/svg">
<path d="M10.7572 13.2811L7.24582 0H4.76577L10.7572 22.6614V31.3098L2.48005 0H0L9.51718 36H10.7572H11.9965H13.2365V0H10.7572V13.2811Z" fill="black"/>
<path d="M54.8965 36L45.3793 0H44.1393H42.8992H41.6592V35.9992H44.1393L50.6849 29.4506L52.4164 35.9992H54.8965V36ZM48.4846 21.125L44.14 25.4696V4.69016L48.4846 21.125ZM44.1393 32.4901V28.9765L49.2173 23.8984L49.9522 26.6771L44.1393 32.4901Z" fill="black"/>
<path d="M18.4614 0H17.2214H15.9814V35.9992H18.4614L25.0071 29.4506L26.7386 35.9992H29.2186L19.7007 0H18.4614ZM22.806 21.125L18.4614 25.4696V4.69016L22.806 21.125ZM18.4614 32.4901V28.9765L23.5395 23.8984L24.2744 26.6771L18.4614 32.4901Z" fill="black"/>
<path d="M39.5136 22.2433L33.6333 0H32.3933H31.1532H29.9132V35.9992H32.3933V29.3235L34.6714 27.0454L37.0388 35.9992L39.5136 35.9811L36.6328 25.084L37.5439 24.1729L39.5136 22.2433ZM32.3933 25.8167V4.69016L36.8105 21.3995L32.3933 25.8167Z" fill="black"/>
<path d="M71.9242 11.5568L61.1994 0.599609V35.9575H63.5244V25.0279L74.2492 35.9996V0.599609H71.9242V11.5568ZM63.5244 21.6877V6.28988L71.9242 14.8927V30.2905L63.5244 21.6877Z" fill="#00FFC4"/>
<path d="M77.7292 35.9996H80.0273V28.3801L89.909 18.3025V14.9877L80.0273 25.0654V21.497L89.909 11.4701V8.10312L80.0273 18.1807V2.94328H89.909V0.599609H77.7292V35.9996Z" fill="#00FFC4"/>
<path d="M106.799 0.599609H93.3889V2.95156H106.799V0.599609Z" fill="#00FFC4"/>
<path d="M93.3889 8.21398L99.5115 14.0131V35.9996H101.824V12.9906L96.2744 7.73399H106.799V5.38204H93.3889V8.21398Z" fill="#00FFC4"/>
</svg>
