<svg width="285" height="144" viewBox="0 0 285 144" fill="none" xmlns="http://www.w3.org/2000/svg">
<path d="M101.913 0C123.961 0 145.974 0.034302 168.021 0.034302C177.411 0.034302 186.801 0 196.191 0C203.964 0.411624 211.325 7.40924 211.978 15.1615C212.666 23.4969 212.15 31.8323 212.288 40.1677C212.391 46.8909 212.357 53.6484 212.357 60.3716C212.838 60.9204 212.873 61.6065 212.873 62.2925C212.873 73.818 212.907 85.3092 212.873 96.8346C212.873 97.0748 212.838 97.2806 212.77 97.5207C212.701 97.8637 212.563 98.1724 212.288 98.4125C212.082 102.22 212.494 106.062 212.047 109.869C211.359 115.838 208.505 120.434 203.38 123.59C203.104 123.762 202.657 123.727 202.623 124.379C208.642 124.551 214.627 125.202 220.612 125.82C220.096 125.854 219.614 125.923 219.098 125.923C194.402 126.163 169.741 126.266 145.045 126.129C143.807 126.129 142.706 126.369 141.606 126.883C138.407 128.29 135.277 129.868 131.94 130.965C130.737 130.211 130.358 128.907 130.014 127.672C129.636 126.266 128.948 125.854 127.641 126.197C111.613 126.3 95.5846 126.163 79.5563 125.683C84.8532 125.237 90.1501 124.825 95.8253 124.345C93.5552 123.041 91.7667 121.738 90.2533 120.057C87.1921 116.696 85.8851 112.682 85.7819 108.257C85.7131 105.273 85.7131 102.323 85.7819 99.3387C85.8163 98.241 85.4379 98.0695 84.4405 98.0695C58.2656 98.1038 32.0907 98.1038 5.91584 98.1038C5.36552 98.1038 4.78079 98.1038 4.23047 98.1038C4.23047 97.9666 4.23047 97.7951 4.23047 97.6579C5.84705 97.6579 7.46363 97.6579 9.08021 97.6579C13.2421 97.0405 17.4039 97.212 21.5657 97.212C41.7558 97.212 61.9803 97.212 82.1704 97.212C85.1972 97.212 85.1972 97.212 85.1972 94.1934C85.1972 87.333 85.1972 80.5069 85.1972 73.6465C85.1972 72.7546 85.094 71.7942 85.6787 71.0052C85.7131 61.7094 85.7131 52.3792 85.7475 43.0834C85.7475 34.748 85.7131 26.4126 85.7819 18.0772C85.8507 9.84469 91.01 2.88137 98.7145 0.583135C99.7808 0.274416 100.813 0 101.913 0Z" fill="#15181C"/>
<path d="M85.7134 71.0399C85.7478 79.5811 85.7478 88.1567 85.7822 96.6979C85.7822 97.4182 85.7134 97.7955 84.7848 97.7955C59.5386 97.7269 34.3268 97.6926 9.08057 97.6583C13.4488 96.4921 17.8514 95.4287 22.1852 94.0566C27.0349 92.513 31.7815 90.8322 36.4249 88.7398C44.1294 85.241 51.4557 81.1247 58.4035 76.2881C63.666 72.6178 68.7565 68.6731 73.7439 64.6598C74.6037 63.9737 75.2229 63.9394 76.1171 64.5912C78.7656 66.5464 81.5172 68.3987 84.2 70.3196C84.6816 70.6626 85.1287 70.9713 85.7134 71.0399Z" fill="#D4D4D7"/>
<path d="M212.357 97.7614C212.357 85.3098 212.357 72.8581 212.357 60.4065C213.561 60.3379 214.283 59.4117 215.074 58.76C215.865 58.1083 216.244 58.2798 216.863 58.8972C220.027 62.1216 223.26 65.2774 226.425 68.4675C233.441 75.5337 241.49 81.2278 250.261 86.0301C259.41 91.0382 269.04 94.7085 279.153 97.2126C279.909 97.4184 280.769 97.1097 281.457 97.6928C280.907 98.2073 280.253 97.9329 279.669 97.9329C268.49 97.9672 257.346 97.9672 246.168 97.9329C244.069 97.9329 242.075 98.1387 240.08 98.7905C239.77 98.8934 239.46 99.0992 239.151 98.7562C238.773 97.2469 237.259 98.1044 236.434 97.4527C236.502 96.2521 237.878 96.012 238.188 95.1202C237.397 95.8748 236.743 97.0068 235.505 97.4527C234.129 98.0015 233.716 96.801 233.029 96.0806C232.409 94.4684 233.201 93.0277 233.476 91.5871C232.685 93.1649 233.132 95.1202 232.272 96.7667C231.343 96.5952 230.724 97.0068 230.311 97.7957C230.036 97.7614 229.864 97.5556 229.761 97.3155C229.176 93.4394 227.628 89.9063 226.012 86.3731C225.702 85.6871 225.29 85.0697 225.152 84.658C226.769 88.0196 228.42 91.7243 229.486 95.6347C229.623 96.1835 229.761 96.7324 229.761 97.3155C229.761 97.7271 230.243 98.0701 229.83 98.5161C229.245 97.83 227.697 98.8591 227.697 97.2812C227.078 97.3498 226.837 97.83 226.906 98.1387C227.353 100.952 226.046 99.0306 225.29 98.7905C223.467 98.173 221.644 97.2812 219.649 98.3789C218.892 98.7905 217.963 98.5847 217.138 98.4818C216.863 98.3789 217.585 98.1387 217.103 98.1044C215.487 98.0358 213.87 98.4818 212.357 97.7614Z" fill="#D5D5D7"/>
<path d="M131.253 131.378C132.181 133.504 134.142 134.636 135.93 135.837C138.751 137.724 142.053 137.003 145.148 137.209C146.352 137.278 147.556 137.175 148.657 137.895C138.269 138.89 127.916 138.89 117.529 137.826C121.003 136.935 124.58 137.14 128.535 136.832C126.85 136.077 125.577 135.46 124.27 134.876C123.066 134.362 121.691 133.847 121.587 132.338C121.45 130.692 122.757 129.868 123.995 129.114C124.58 128.736 125.199 128.222 125.99 128.393C126.609 128.839 126.884 129.525 127.469 130.006C128.329 130.726 129.189 131.275 130.393 131.035C130.668 130.966 131.184 130.692 131.253 131.378Z" fill="#121418"/>
<path d="M131.253 131.377C128.432 131.652 126.541 130.588 125.99 128.393C125.199 127.021 125.921 126.815 127.125 126.918C127.504 126.952 128.054 127.193 128.226 126.541C128.226 126.472 127.882 126.335 127.71 126.232C129.223 125.477 130.255 125.615 130.496 127.604C130.634 128.873 131.528 129.868 132.009 131C131.734 131.137 131.494 131.24 131.253 131.377Z" fill="#E2E2E5"/>
<path d="M238.463 132.03C261.391 132.03 279.978 131.953 279.978 131.858C279.978 131.763 261.391 131.686 238.463 131.686C215.535 131.686 196.948 131.763 196.948 131.858C196.948 131.953 215.535 132.03 238.463 132.03Z" fill="#303134"/>
<path d="M232.134 144.035C254.93 144.035 273.409 143.973 273.409 143.897C273.409 143.821 254.93 143.76 232.134 143.76C209.339 143.76 190.86 143.821 190.86 143.897C190.86 143.973 209.339 144.035 232.134 144.035Z" fill="#131316"/>
<path d="M239.117 98.7548C241.731 97.8629 244.448 97.6914 247.2 97.7257C258.619 97.76 270.038 97.7257 281.457 97.6914C282.627 97.6914 283.831 97.6914 285 97.6914C285 97.8286 285 98.0001 285 98.1373C284.312 98.1373 283.624 98.1373 282.936 98.1373C271.448 98.1373 259.926 98.2059 248.438 98.103C244.104 98.0687 239.942 98.4461 236.09 101.087C236.296 100.093 237.019 99.9896 237.5 99.6466C237.982 99.2693 238.601 99.0292 239.117 98.7548Z" fill="#212328"/>
<path d="M275.713 122.424C262.23 122.424 248.747 122.424 235.264 122.424C235.264 122.355 235.264 122.286 235.264 122.252C248.747 122.252 262.196 122.252 275.679 122.252C275.713 122.286 275.713 122.355 275.713 122.424Z" fill="#0C0B10"/>
<path d="M53.5879 103.181C67.74 103.181 79.2125 103.135 79.2125 103.078C79.2125 103.021 67.74 102.975 53.5879 102.975C39.4359 102.975 27.9634 103.021 27.9634 103.078C27.9634 103.135 39.4359 103.181 53.5879 103.181Z" fill="#131317"/>
<path d="M49.9074 106.713C60.6388 106.713 71.4045 106.713 82.1359 106.713C82.1359 106.782 82.1359 106.85 82.1359 106.919C71.3702 106.919 60.6388 106.919 49.873 106.919C49.873 106.85 49.873 106.782 49.9074 106.713Z" fill="#1B1B1E"/>
<path d="M53.4506 110.797C65.874 110.797 75.9452 110.735 75.9452 110.659C75.9452 110.583 65.874 110.521 53.4506 110.521C41.0272 110.521 30.9561 110.583 30.9561 110.659C30.9561 110.735 41.0272 110.797 53.4506 110.797Z" fill="#2C2B30"/>
<path d="M216.037 108.807C226.528 108.807 237.053 108.807 247.543 108.807C247.543 108.875 247.543 108.944 247.543 109.013C237.019 109.013 226.494 109.013 216.003 109.013C216.003 108.944 216.003 108.875 216.037 108.807Z" fill="#101014"/>
<path d="M28.101 106.337C18.7455 106.337 9.35554 106.337 0 106.337C0 106.268 0 106.2 0 106.131C9.38993 106.131 18.7799 106.131 28.1354 106.131C28.1354 106.2 28.1354 106.268 28.101 106.337Z" fill="#191B20"/>
<path d="M280.391 105.926C271.586 105.926 262.781 105.926 253.941 105.926C253.941 105.857 253.941 105.788 253.941 105.754C262.746 105.754 271.517 105.754 280.322 105.754C280.357 105.823 280.391 105.891 280.391 105.926Z" fill="#232326"/>
<path d="M23.1135 131.754C30.7493 131.754 38.385 131.754 46.0208 131.754C46.0208 131.823 46.0208 131.891 46.0208 131.96C38.385 131.96 30.7149 131.96 23.0791 131.96C23.0791 131.891 23.1135 131.823 23.1135 131.754Z" fill="#161618"/>
<path d="M80.2788 132.029C89.2639 132.029 96.5478 131.982 96.5478 131.925C96.5478 131.868 89.2639 131.822 80.2788 131.822C71.2936 131.822 64.0098 131.868 64.0098 131.925C64.0098 131.982 71.2936 132.029 80.2788 132.029Z" fill="#141316"/>
<path d="M65.3511 125.306C65.6262 121.601 66.9333 118.24 68.9282 115.084C67.7587 118.514 66.5549 121.91 65.3511 125.306Z" fill="#1D1C1E"/>
<path d="M68.3091 125.512C69.5817 123.11 71.2327 121.087 73.6748 119.783C71.9206 121.773 70.0632 123.591 68.3091 125.512Z" fill="#1B1A1D"/>
<path d="M232.237 96.7668C232.581 94.8459 232.547 92.8563 233.648 90.6953C233.682 92.7877 232.822 94.3656 233.028 96.0807C232.891 96.8354 232.788 97.59 232.616 98.5162C232.065 97.8301 232.375 97.2813 232.237 96.7668Z" fill="#49484C"/>
<path d="M212.357 97.7617C214.283 97.7617 216.209 97.7617 218.238 97.7617C217.929 98.3792 217.344 98.1047 217.069 98.4135C215.487 98.4135 213.905 98.4478 212.288 98.4478C212.322 98.2076 212.322 97.9675 212.357 97.7617Z" fill="#636466"/>
<path d="M59.401 123.556C58.1628 122.012 56.9589 120.434 55.7207 118.891C57.6812 119.851 58.7475 121.532 59.401 123.556Z" fill="#1F1F21"/>
<path d="M58.5754 129.936C56.3397 129.216 54.3103 128.084 52.0059 127.741C54.5167 127.535 56.6148 128.564 58.5754 129.936Z" fill="#313335"/>
<path d="M220.268 99.4082C222.779 99.4768 224.877 100.54 226.768 102.152C224.67 101.123 222.607 100.06 220.268 99.8198C220.13 99.6483 220.13 99.5111 220.268 99.4082Z" fill="#292B2E"/>
<path d="M235.505 97.4528C236.675 96.1493 237.844 94.8801 239.426 93.9883C238.738 95.3947 237.397 96.2865 236.434 97.4528C236.021 97.4528 235.884 98.1731 235.368 97.933C235.333 97.8987 235.436 97.6243 235.505 97.4528Z" fill="#202024"/>
<path d="M55.1357 124.037C56.7867 124.483 57.8874 125.649 58.816 127.056C57.6122 126.027 56.374 125.032 55.1357 124.037Z" fill="#242527"/>
<path d="M62.3931 123.727C63.2186 125.442 63.1842 127.294 62.8402 129.146C62.6682 127.328 62.5306 125.51 62.3931 123.727Z" fill="#252427"/>
<path d="M68.8252 128.428C67.7589 129.594 66.8303 130.589 65.8672 131.618C66.4863 130.28 67.587 129.422 68.8252 128.428Z" fill="#444047"/>
<path d="M220.268 99.4077C220.268 99.5449 220.268 99.6821 220.233 99.8193C218.823 99.6821 217.413 99.5449 216.037 99.4077C217.447 99.2019 218.858 98.8589 220.268 99.4077Z" fill="#3B3E3F"/>
<path d="M229.933 97.4182C230.036 97.5554 230.174 97.6583 230.277 97.7955C230.38 98.7217 230.483 99.6821 230.586 100.814C229.83 100.059 229.898 99.2362 229.761 98.4816C229.692 98.1042 229.658 97.7612 229.589 97.3839C229.726 97.281 229.83 97.281 229.933 97.4182Z" fill="#555458"/>
<path d="M113.918 113.3C114.399 116.49 115.913 119.166 118.08 121.533C113.264 121.533 108.586 121.361 103.909 121.567C96.9952 121.876 90.2193 115.701 90.3225 107.846C90.46 99.2364 90.3569 90.5923 90.3569 81.9482C90.3569 60.9896 90.3569 39.9968 90.3569 19.0382C90.3569 15.265 91.2167 11.8348 93.7964 8.9534C96.4104 6.00343 99.6092 4.35693 103.53 4.32263C112.129 4.25402 120.728 4.28832 129.396 4.28832C129.258 4.90576 129.12 5.4889 129.017 6.10633C128.467 9.63944 131.012 13.0353 134.589 13.0696C144.254 13.1726 153.954 13.2069 163.653 13.0696C167.987 13.001 170.223 9.15922 168.985 4.28832C170.36 4.28832 171.702 4.28832 173.043 4.28832C179.682 4.28832 186.354 4.49414 192.993 4.21972C201.763 3.8767 207.851 10.5313 207.817 18.9353C207.679 41.4031 207.783 63.8367 207.783 86.3045C207.783 93.508 207.817 100.711 207.783 107.915C207.748 114.295 203.586 119.543 197.43 121.224C196.123 121.567 194.816 121.567 193.509 121.567C179.819 121.567 166.13 121.567 152.372 121.567C152.234 121.087 152.819 121.087 153.094 120.95C155.02 119.818 156.843 118.548 158.563 117.142C159.423 116.456 160.179 115.701 160.799 114.775C162.037 112.957 162.587 111.071 161.521 109.012C160.489 106.989 158.528 106.543 156.465 106.371C149.001 105.685 141.64 106.508 134.245 108.086C134.28 105.411 134.211 102.838 134.933 100.3C135.828 100.54 136.034 101.397 136.447 102.049C137.926 104.21 139.198 104.69 141.744 103.936C144.151 103.215 146.524 102.392 148.657 101.02C149.517 100.471 152.612 98.5504 153.06 98.173C153.919 97.3841 154.848 96.6637 155.708 95.8748C156.499 95.3946 157.29 95.0858 158.219 95.4632C159.423 96.0463 160.627 96.1149 161.83 95.4289C162.278 95.1888 169.501 84.0406 169.879 83.4232C170.395 82.5656 170.154 82.0854 169.329 81.6738C166.439 80.1645 163.447 78.8267 160.558 77.2831C159.492 76.7 158.976 77.2831 158.494 78.072C156.637 81.0906 154.573 84.0063 152.888 87.1278C151.649 89.426 149.964 91.0039 147.694 92.1359C146.181 92.9591 144.564 93.4737 142.879 93.9196C141.606 94.2626 140.78 93.851 140.265 92.6847C139.198 90.2836 138.27 87.8824 138.201 85.1726C138.063 81.1935 136.653 77.729 133.42 75.1564C133.248 74.9506 133.11 74.7104 133.042 74.436C133.901 71.932 136.068 70.8686 138.166 69.7023C138.717 69.3936 139.37 69.668 139.989 69.8738C141.675 70.4913 142.225 70.2169 142.844 68.5361C143.532 66.6495 143.704 64.6256 144.082 62.6704C144.151 62.396 144.186 62.1216 144.289 61.8472C145.389 59.0344 143.979 56.1873 140.987 55.5356C138.958 55.124 136.963 55.2269 135.449 56.9763C134.796 57.7652 134.142 57.7995 133.213 57.4908C131.253 56.8048 130.083 57.3536 129.155 59.2059C128.742 60.0292 128.57 60.921 128.295 61.8129C127.917 63.082 127.366 64.2483 126.438 65.2431C125.44 66.2721 124.408 66.8553 122.929 66.1006C121.966 65.6204 121.003 65.8262 120.35 66.7524C119.765 67.5756 119.765 68.4675 120.246 69.325C120.831 70.3541 122.379 70.7314 123.204 69.7709C124.546 68.2273 125.853 68.6047 127.297 69.3936C127.71 69.5994 128.192 69.6337 128.604 69.8395C129.017 70.1826 129.086 70.5942 128.845 71.0401C127.057 71.4517 125.99 72.7895 124.924 74.1273C119.765 80.6447 116.841 88.1568 115.156 96.1492C114.055 101.363 113.23 106.577 113.986 111.928C114.055 112.443 113.746 112.854 113.918 113.3Z" fill="#FDFDFD"/>
<path d="M190.702 40.6643C175.259 40.6643 159.815 40.6643 144.372 40.6643C144.372 40.5611 144.372 40.4235 144.372 40.3203C159.815 40.3203 175.259 40.3203 190.702 40.3203C190.668 40.4235 190.702 40.5267 190.702 40.6643Z" fill="#CFD0D2"/>
<path d="M168.036 45.9119C186.272 45.9119 201.055 45.8044 201.055 45.6717C201.055 45.5391 186.272 45.4316 168.036 45.4316C149.799 45.4316 135.016 45.5391 135.016 45.6717C135.016 45.8044 149.799 45.9119 168.036 45.9119Z" fill="#CFD1D4"/>
<path d="M168.036 35.5173C186.272 35.5173 201.055 35.4098 201.055 35.2772C201.055 35.1446 186.272 35.0371 168.036 35.0371C149.799 35.0371 135.016 35.1446 135.016 35.2772C135.016 35.4098 149.799 35.5173 168.036 35.5173Z" fill="#CFD1D4"/>
<path d="M133.247 74.4012C133.351 74.5384 133.488 74.6756 133.591 74.7785C133.66 75.3616 133.695 75.9105 133.66 76.4936C133.591 78.3459 133.454 78.4488 131.665 78.1744C128.535 77.7285 125.956 80.404 126.609 83.5941C127.091 85.961 128.157 88.0877 129.292 90.2144C129.739 91.072 130.633 91.8609 130.083 92.9929C128.123 98.001 127.091 103.112 128.673 108.429C129.086 109.801 128.019 109.801 127.331 110.075C122.963 111.653 118.492 112.922 113.849 113.334C112.851 110.658 113.057 107.811 113.298 105.067C114.089 95.9772 116.359 87.2987 120.831 79.2721C122.413 76.425 124.408 73.8866 126.575 71.4512C127.297 70.628 127.916 70.525 128.707 71.2454C130.565 71.8285 132.009 72.9605 133.247 74.4012Z" fill="#47484A"/>
<path d="M130.152 92.9937C129.464 90.6954 127.847 88.8088 127.056 86.5449C126.334 84.4182 125.509 82.3943 126.712 80.1647C127.779 78.2095 129.808 77.1804 131.975 77.7979C132.938 78.0723 133.282 77.9351 133.248 76.8717C133.213 76.1857 132.904 75.3624 133.626 74.7793C137.134 77.1804 138.51 80.7822 138.682 84.7612C138.82 87.6426 139.679 90.2152 140.815 92.7879C141.158 93.5768 141.571 93.7483 142.397 93.5425C144.22 93.0966 146.008 92.4791 147.728 91.7245C148.003 91.7588 148.278 91.6559 148.553 91.6216C149.035 91.5873 149.517 91.5873 149.792 91.9989C150.136 92.5135 149.826 92.9937 149.585 93.4053C149.173 94.0227 148.622 94.5373 147.797 95.1204C148.725 94.5716 149.345 94.0913 150.136 93.9541C151.58 93.8512 152.75 92.8222 154.229 92.8222C155.295 93.028 155.261 94.0227 155.639 94.7088C155.88 95.1204 156.258 95.532 156.017 96.0809C154.882 97.1099 152.131 99.4425 151.168 100.163C148.347 101.741 145.527 103.353 142.397 104.245C138.992 105.24 137.478 104.622 135.793 101.569C135.552 101.123 135.277 100.677 135.036 100.266C133.351 97.8303 132.078 95.189 130.152 92.9937Z" fill="#202327"/>
<path d="M160.042 7.95865C159.939 8.8505 159.457 9.63945 158.46 9.57085C157.565 9.50224 156.912 8.7819 156.981 7.78714C157.049 6.82668 157.703 6.20925 158.7 6.24355C159.663 6.31215 160.076 6.96389 160.042 7.95865Z" fill="#3E3F44"/>
<path d="M229.933 97.4172L229.761 97.3829L229.589 97.4172C228.901 93.8841 227.25 90.6597 225.909 87.3667C225.496 86.3377 225.049 85.3086 224.808 84.2109C227.801 88.1214 229.142 92.6835 229.933 97.4172Z" fill="#1C1D20"/>
<path d="M239.151 87.8139C237.741 90.0093 236.331 92.1703 234.92 94.3656C235.402 91.6215 236.915 89.4947 238.91 87.6767C238.91 87.6424 239.013 87.7453 239.151 87.8139Z" fill="#222124"/>
<path d="M221.369 90.0078C223.811 91.3799 225.427 93.5066 226.666 95.9421C224.946 93.9183 223.123 91.9973 221.369 90.0078Z" fill="#111215"/>
<path d="M190.702 30.2365C175.259 30.2365 159.815 30.2365 144.372 30.2365C144.372 30.1333 144.372 29.9958 144.372 29.8926C159.815 29.8926 175.259 29.8926 190.702 29.8926C190.668 29.9958 190.702 30.1333 190.702 30.2365Z" fill="#CFD0D2"/>
<path d="M168.036 25.0896C186.272 25.0896 201.055 24.9821 201.055 24.8495C201.055 24.7169 186.272 24.6094 168.036 24.6094C149.799 24.6094 135.016 24.7169 135.016 24.8495C135.016 24.9821 149.799 25.0896 168.036 25.0896Z" fill="#CFD1D4"/>
<path d="M128.329 69.9763C127.882 69.942 127.332 70.045 127.022 69.8048C125.681 68.8444 124.683 68.57 123.548 70.2508C122.86 71.2798 121.45 71.0397 120.453 70.2851C119.249 69.3589 119.111 68.0554 119.765 66.752C120.384 65.5514 121.347 65.1398 122.757 65.4485C123.445 65.5857 123.858 66.649 124.718 66.1002C125.818 65.3799 126.885 64.5566 127.366 63.2874C127.813 62.0869 128.088 60.7834 128.536 59.5485C129.499 56.873 131.287 56.0497 133.867 57.2846C134.624 57.6619 134.692 57.216 135.002 56.873C137.582 54.0602 141.881 54.1631 144.289 57.1131C145.63 58.7596 145.733 60.3718 144.633 61.9154C144.323 61.9497 140.78 63.6648 140.402 63.9735C139.852 64.4194 139.301 64.5909 138.751 64.0078C138.063 63.2874 137.375 63.4247 137.341 64.3508C137.238 66.7177 135.552 67.438 133.729 68.124C132.835 68.4671 131.941 68.913 131.115 69.3589C130.221 69.8048 129.327 70.045 128.329 69.9763Z" fill="#12151A"/>
<path d="M128.329 69.9763C130.806 68.913 133.282 67.781 135.793 66.7519C136.756 66.3746 136.79 65.7229 136.825 64.8653C136.859 64.1793 136.584 63.2531 137.375 62.8758C138.235 62.4642 138.751 63.0473 139.06 63.8019C139.198 64.145 139.508 64.1107 139.748 63.9392C139.989 63.8019 140.333 63.6304 140.367 63.3903C140.987 60.7834 142.672 61.0235 144.529 61.881C144.289 64.4194 143.945 66.9234 143.016 69.3246C142.466 70.6967 141.571 71.1426 140.367 70.4565C138.854 69.6333 137.719 70.0106 136.584 71.0397C135.415 72.103 134.004 72.9263 133.213 74.367C131.7 73.3036 130.186 72.2403 128.673 71.1769C128.742 70.7653 128.811 70.285 128.329 69.9763Z" fill="#E3E3E5"/>
<path d="M155.33 95.0172C154.504 94.6399 155.226 93.3364 154.195 93.0963C154.091 91.6213 153.163 92.273 152.544 92.5475C151.615 92.9934 150.996 93.8852 150.067 94.3312C148.932 94.5027 148.21 95.6689 146.937 95.6346C146.903 94.8114 147.694 94.7771 148.072 94.3998C148.691 93.8166 149.62 93.2335 149.517 92.3759C149.414 91.3812 148.141 92.3074 147.659 91.6556C150.824 90.2835 152.2 87.3335 153.851 84.6237C155.398 82.051 157.084 79.5127 158.632 76.94C159.079 76.1854 159.423 76.0482 160.214 76.4941C163.241 78.072 166.302 79.6499 169.363 81.0906C170.842 81.7766 170.945 82.3941 170.051 83.8004C169.294 84.9667 164.1 93.4393 162.69 95.3602C161.349 96.8695 159.595 97.0753 157.875 95.7376C158.012 94.7085 159.182 94.4684 159.491 93.5422C159.629 93.405 159.801 93.2335 159.904 93.2678C162.037 93.9538 162.69 92.3073 163.55 91.0039C165.063 88.6713 166.474 86.2359 167.987 83.869C168.606 82.9429 168.503 82.3597 167.471 81.8795C165.235 80.8505 163.069 79.6842 160.867 78.5865C160.042 78.1749 159.491 78.2778 159.01 79.1011C157.256 81.9824 155.467 84.8295 153.644 87.6766C152.956 88.7399 153.059 89.426 154.229 90.0091C155.158 90.455 156.052 91.0039 156.74 91.7928C157.221 92.4103 156.981 92.9591 156.465 93.405C156.017 93.8509 155.742 94.4684 155.33 95.0172Z" fill="#18191B"/>
<path d="M111.897 49.0231C105.396 49.9492 99.1709 44.5295 98.5174 37.7034C97.8639 31.2546 102.679 25.1488 109.283 23.9826C112.895 23.3651 116.025 24.3599 118.811 26.6238C119.086 27.0698 119.705 27.4814 118.879 27.9616C118.329 28.1331 117.882 27.8587 117.435 27.5843C113.583 25.0459 109.627 24.7715 105.637 27.1727C101.716 29.5052 100.168 33.1412 100.306 37.6005C100.616 40.7906 101.854 43.4661 104.537 45.387C106.016 46.7934 108.045 46.9649 109.833 47.6853C110.349 48.4056 111.863 47.5481 111.897 49.0231Z" fill="#BEBFC1"/>
<path d="M118.707 27.8245C119.361 27.4815 118.811 27.0355 118.811 26.6582C121.665 28.5448 123.11 31.3576 123.523 34.582C124.142 39.4872 122.629 43.7063 118.535 46.6906C116.575 48.097 114.339 48.9202 111.897 49.0231C111.45 48.097 110.521 48.5086 109.833 48.3028C109.799 48.3028 109.765 48.1999 109.765 48.1656C109.765 48.1313 109.799 48.0627 109.833 48.0284C110.521 47.4109 111.45 47.5825 112.276 47.4109C118.123 46.279 121.459 42.6773 122.078 36.7773C122.078 36.1942 122.113 35.611 121.906 35.0622C121.528 32.8326 120.702 30.8088 119.223 29.0593C118.914 28.682 118.604 28.339 118.707 27.8245Z" fill="#B1B2B3"/>
<path d="M155.33 95.0175C155.158 94.3315 155.123 93.7826 155.914 93.371C156.362 93.1309 157.015 92.7193 156.602 91.9646C157.772 91.1757 159.01 90.5582 160.42 90.3867C161.418 90.4896 162.209 90.8326 162.243 92.0332C162.106 92.7879 161.521 93.028 160.867 93.0623C160.317 93.0966 159.835 93.1652 159.732 93.8169C159.56 94.8803 158.597 95.189 157.944 95.7721C157.187 95.2919 156.602 96.0123 155.949 96.1152C155.742 95.7378 155.536 95.3605 155.33 95.0175Z" fill="#DBDBDD"/>
<path d="M150.102 94.3655C150.652 93.5079 151.546 92.9591 152.2 92.2387C153.128 91.244 153.954 91.6899 154.676 92.3416C155.639 93.1992 154.332 92.8219 154.195 93.0963C152.819 93.405 151.546 94.1939 150.102 94.3655Z" fill="#F0F0F2"/>
<path d="M159.732 93.7809C159.629 93.0262 159.87 92.5803 160.73 92.6146C161.314 92.6489 161.865 92.546 162.105 91.8943C162.312 90.5222 161.211 90.8309 160.489 90.6251C159.113 90.8652 158.081 91.9972 156.602 91.9629C155.983 91.5513 155.364 91.1396 154.745 90.728C152.303 89.1844 152.303 89.1844 153.782 86.7833C155.502 83.9705 157.29 81.192 159.01 78.3793C159.388 77.7618 159.595 77.4188 160.42 77.8647C163.378 79.4426 166.37 80.9176 169.432 82.4955C167.299 85.8914 164.96 89.6646 162.897 92.9919C162.277 94.021 161.727 95.0158 160.283 94.021C160.111 93.9524 160.007 93.7123 159.732 93.7809Z" fill="#F0F0F2"/>
<path d="M118.708 27.8236C120.599 29.8474 122.113 32.077 122.25 34.9927C122.525 35.5758 122.319 35.8846 121.7 35.8503C121.218 35.8503 120.84 35.5415 120.427 35.3357C113.961 32.2142 107.77 32.5916 101.957 36.9479C101.372 37.3938 100.891 38.2514 99.9277 37.7369C99.3429 31.3567 103.746 26.2114 109.49 25.2509C112.516 24.7364 115.199 25.6282 117.71 27.2747C117.985 27.4806 118.26 27.7893 118.708 27.8236Z" fill="#FDFDFD"/>
<path d="M99.8931 37.7382C101.028 37.5324 101.613 36.5377 102.507 35.9202C108.526 31.9412 114.717 31.9069 121.046 35.097C121.459 35.3028 121.975 36.126 122.216 34.9598C122.697 35.4743 122.456 36.0917 122.491 36.6749C122.181 37.4981 121.425 37.3952 120.771 37.5324C115.921 38.4243 111.519 40.3109 107.598 43.3638C106.91 43.8783 106.291 44.4614 105.74 45.1132C105.362 45.5248 104.984 46.0393 104.296 45.6277C101.406 43.8097 100.237 40.9969 99.8931 37.7382Z" fill="#F0EFF1"/>
<path d="M104.296 45.6607C105.637 45.352 106.016 43.9456 107.013 43.2253C111.485 39.9323 116.334 37.6683 121.872 37.0166C122.078 36.9823 122.285 36.8451 122.491 36.7422C122.319 43.3625 117.057 48.0619 109.834 48.0619C108.458 47.513 106.876 47.5473 105.637 46.6555C105.156 46.3125 104.571 46.2096 104.296 45.6607Z" fill="#D9DADC"/>
</svg>
