<svg width="20" height="18" viewBox="0 0 20 18" fill="none" xmlns="http://www.w3.org/2000/svg">
<path d="M2.68179 8.59115C3.19023 8.59103 3.66327 8.7287 4.06628 8.96785C4.2179 9.05785 4.40777 9.06115 4.56258 8.97645C4.71738 8.89174 4.81279 8.73228 4.81279 8.5594L4.81279 5.44975C4.81279 4.97124 5.22602 4.58638 5.71778 4.58638L9.63175 4.58638C9.80556 4.58638 9.96646 4.49694 10.0548 4.35128C10.1431 4.20558 10.146 4.02519 10.0618 3.87714C9.84845 3.50199 9.72704 3.06963 9.72704 2.61109C9.72704 1.16949 10.9278 7.93118e-07 12.4093 6.63599e-07C13.8904 5.34118e-07 15.0909 1.16989 15.0909 2.61152C15.0909 3.06999 14.9695 3.50215 14.7563 3.87718C14.672 4.0253 14.6746 4.20574 14.7629 4.35156C14.8514 4.49737 15.0124 4.58638 15.1863 4.58638L19.1001 4.58638C19.592 4.58638 20 4.97123 20 5.44975L20 8.48297C20 8.65131 19.909 8.80723 19.7605 8.89349C19.6119 8.97975 19.4276 8.98381 19.2755 8.90372C18.8967 8.7043 18.463 8.59107 18.0021 8.59119C16.5207 8.59099 15.32 9.76001 15.32 11.2017C15.32 12.6435 16.5207 13.8123 18.0021 13.8119C18.463 13.8119 18.8967 13.6987 19.2755 13.4993C19.4278 13.4192 19.6121 13.4229 19.7608 13.5093C19.9094 13.5956 20 13.7517 20 13.9201L20 17.1333C20 17.612 19.592 18 19.1002 18L5.71778 18C5.22615 18 4.81279 17.612 4.81279 17.1333L4.81279 13.8437C4.81279 13.6709 4.71697 13.5116 4.56233 13.4269C4.40769 13.3423 4.2179 13.3452 4.06628 13.4351C3.66335 13.6743 3.19019 13.8119 2.68187 13.8119C1.20046 13.8123 1.10533e-06 12.6435 9.79282e-07 11.2017C-4.11084e-05 9.76001 1.20046 8.59095 2.68179 8.59115Z" fill="black"/>
</svg>
