<svg width="18" height="18" viewBox="0 0 18 18" fill="none" xmlns="http://www.w3.org/2000/svg">
<path d="M6.46875 0C7.55508 0 8.4375 0.882422 8.4375 1.96875V16.0312C8.4375 17.1176 7.55508 18 6.46875 18C5.45273 18 4.61602 17.2301 4.51055 16.2387C4.32773 16.2879 4.13437 16.3125 3.9375 16.3125C2.69648 16.3125 1.6875 15.3035 1.6875 14.0625C1.6875 13.8023 1.7332 13.5492 1.81406 13.3172C0.752344 12.9164 0 11.8898 0 10.6875C0 9.56602 0.657422 8.5957 1.61016 8.1457C1.3043 7.7625 1.125 7.27734 1.125 6.75C1.125 5.6707 1.88438 4.7707 2.89688 4.54922C2.84063 4.35586 2.8125 4.14844 2.8125 3.9375C2.8125 2.88633 3.53672 2.00039 4.51055 1.7543C4.61602 0.769922 5.45273 0 6.46875 0ZM11.5312 0C12.5473 0 13.3805 0.769922 13.4895 1.7543C14.4668 2.00039 15.1875 2.88281 15.1875 3.9375C15.1875 4.14844 15.1594 4.35586 15.1031 4.54922C16.1156 4.76719 16.875 5.6707 16.875 6.75C16.875 7.27734 16.6957 7.7625 16.3898 8.1457C17.3426 8.5957 18 9.56602 18 10.6875C18 11.8898 17.2477 12.9164 16.1859 13.3172C16.2668 13.5492 16.3125 13.8023 16.3125 14.0625C16.3125 15.3035 15.3035 16.3125 14.0625 16.3125C13.8656 16.3125 13.6723 16.2879 13.4895 16.2387C13.384 17.2301 12.5473 18 11.5312 18C10.4449 18 9.5625 17.1176 9.5625 16.0312V1.96875C9.5625 0.882422 10.4449 0 11.5312 0Z" fill="black"/>
</svg>
