<svg width="13" height="13" viewBox="0 0 13 13" fill="none" xmlns="http://www.w3.org/2000/svg">
<path d="M1.928 12L9.672 0.832H10.904L3.16 12H1.928ZM2.568 6.976C2.03467 6.976 1.576 6.85333 1.192 6.608C0.818667 6.36267 0.530667 6.00533 0.328 5.536C0.136 5.06667 0.0400001 4.49067 0.0400001 3.808C0.0400001 3.12533 0.136 2.54933 0.328 2.08C0.530667 1.61067 0.818667 1.25333 1.192 1.008C1.576 0.762666 2.03467 0.639999 2.568 0.639999C3.112 0.639999 3.57067 0.762666 3.944 1.008C4.31733 1.25333 4.6 1.61067 4.792 2.08C4.99467 2.54933 5.096 3.12533 5.096 3.808C5.096 4.49067 4.99467 5.06667 4.792 5.536C4.6 6.00533 4.31733 6.36267 3.944 6.608C3.57067 6.85333 3.112 6.976 2.568 6.976ZM2.568 6.144C2.87733 6.144 3.13333 6.07467 3.336 5.936C3.53867 5.79733 3.688 5.58933 3.784 5.312C3.89067 5.03467 3.944 4.69333 3.944 4.288V3.328C3.944 2.92267 3.89067 2.58133 3.784 2.304C3.688 2.02667 3.53867 1.81867 3.336 1.68C3.13333 1.54133 2.87733 1.472 2.568 1.472C2.25867 1.472 2.00267 1.54133 1.8 1.68C1.59733 1.81867 1.44267 2.02667 1.336 2.304C1.24 2.58133 1.192 2.92267 1.192 3.328V4.288C1.192 4.69333 1.24 5.03467 1.336 5.312C1.44267 5.58933 1.59733 5.79733 1.8 5.936C2.00267 6.07467 2.25867 6.144 2.568 6.144ZM10.264 12.192C9.73067 12.192 9.272 12.0693 8.888 11.824C8.51467 11.5787 8.22667 11.2213 8.024 10.752C7.832 10.2827 7.736 9.70667 7.736 9.024C7.736 8.34133 7.832 7.76533 8.024 7.296C8.22667 6.82667 8.51467 6.46933 8.888 6.224C9.272 5.97867 9.73067 5.856 10.264 5.856C10.808 5.856 11.2667 5.97867 11.64 6.224C12.0133 6.46933 12.296 6.82667 12.488 7.296C12.6907 7.76533 12.792 8.34133 12.792 9.024C12.792 9.70667 12.6907 10.2827 12.488 10.752C12.296 11.2213 12.0133 11.5787 11.64 11.824C11.2667 12.0693 10.808 12.192 10.264 12.192ZM10.264 11.36C10.5733 11.36 10.8293 11.2907 11.032 11.152C11.2347 11.0133 11.384 10.8053 11.48 10.528C11.5867 10.2507 11.64 9.90933 11.64 9.504V8.544C11.64 8.13867 11.5867 7.79733 11.48 7.52C11.384 7.24267 11.2347 7.03467 11.032 6.896C10.8293 6.75733 10.5733 6.688 10.264 6.688C9.95467 6.688 9.69867 6.75733 9.496 6.896C9.29333 7.03467 9.13867 7.24267 9.032 7.52C8.936 7.79733 8.888 8.13867 8.888 8.544V9.504C8.888 9.90933 8.936 10.2507 9.032 10.528C9.13867 10.8053 9.29333 11.0133 9.496 11.152C9.69867 11.2907 9.95467 11.36 10.264 11.36Z" fill="#93989A"/>
</svg>
